<?xml version="1.0" encoding="utf-8"?>
<!-- Generator: Adobe Illustrator 28.0.0, SVG Export Plug-In . SVG Version: 6.00 Build 0)  -->
<svg version="1.1" id="Calque_1" xmlns="http://www.w3.org/2000/svg" xmlns:xlink="http://www.w3.org/1999/xlink" x="0px" y="0px"
	 viewBox="0 0 2000 2000" style="enable-background:new 0 0 2000 2000;" xml:space="preserve">
<style type="text/css">
	.st0{fill:#E63643;}
</style>
<g>
	<g>
		<path class="st0" d="M471.54,1012.02c-0.91-6.98-2.17-13.93-2.68-20.94c-3.24-44.17-3.98-88.69-10.17-132.44
			c-5.22-36.9-15.95-73.11-25.72-109.23c-4.38-16.2-12.35-17.73-24.66-6.07c-47.6,45.09-75.96,99.35-78.02,166.02
			c-0.39,12.47,3.16,22.88,10.34,32.95c63.46,89.03,124.31,179.78,176.32,276.09c9.52,17.63,17.38,36.67,22.52,55.99
			c3.42,12.85,1.22,27.39,0.46,41.11c-0.53,9.6-3.27,19.06-4.26,28.65c-0.8,7.7-4.28,10.44-11.72,8.97
			c-13.49-2.67-22.14-11.36-29.02-22.56c-36.2-58.96-72.31-117.98-108.79-176.77c-17.55-28.29-35.83-56.13-53.78-84.18
			c-1.15,0.18-2.31,0.35-3.46,0.53c0.89,13.8,2.2,27.58,2.59,41.39c0.99,35.79,2.09,71.59,2.06,107.39
			c-0.01,14.04-25.57,42.04-39.37,43.13c-5.22,0.41-12.49-4.57-16.2-9.21c-17.44-21.77-27.27-47.42-34.35-74.07
			c-21.44-80.72-30.63-163.35-34.07-246.4c-3.5-84.29-3.78-168.73-4.2-253.11c-0.11-21.33,4.08-42.75,7.28-63.99
			c2.46-16.37,6.27-18.85,22.56-18.81c23.91,0.05,25.47-0.23,29.97,24.47c8.52,46.8,15.1,93.96,22.38,140.99
			c1.27,8.21,2.01,16.5,3.48,28.77c4.52-7.74,7.25-12.15,9.72-16.69c23.79-43.87,61.1-71.52,107.52-86.88
			c9.96-3.3,23.13-2.5,33.16,1.06c31.81,11.31,52.95,34.58,62.18,66.9c13.64,47.77,25.84,95.95,38.3,144.05
			c1.08,4.18,1.04,10.02-1.11,13.45c-21.11,33.83-42.78,67.32-64.28,100.91C474.86,1013,473.2,1012.51,471.54,1012.02z"/>
		<path class="st0" d="M1307.36,1289.29c19.38,0.58,32.9,14.9,33.95,38.51c6.19-1.83,12.22-2.67,17.35-5.28
			c70.63-35.98,140.93-72.59,211.73-108.23c49.68-25.01,99.99-48.78,150.01-73.14c1.07-0.52,1.93-1.46,4.7-3.61
			c-5.85-6.22-11.16-12.41-17.02-18.01c-35.07-33.52-71.7-65.54-105.06-100.68c-39.51-41.62-72.11-88.52-85.82-145.58
			c-12.59-52.4-7.88-103.57,19.58-150.57c36.34-62.19,113.06-76.79,170.45-33.3c40.93,31.01,62.63,74.23,75.18,122.8
			c2.43,9.41-4.22,13.64-11.08,17.59c-6.89,3.96-13.06,3.37-17.89-3.04c-10.4-13.82-20.37-27.97-30.82-41.75
			c-18.27-24.09-38.12-46.37-68.04-56.49c-27.77-9.39-41.65-4.03-55.22,21.43c-34.86,65.39-26.85,126.86,29.04,186.5
			c32.79,35,70.59,65.26,105.28,98.54c16.37,15.7,32.4,32.29,45.62,50.61c22.54,31.23,20.06,59.79-5.94,88.39
			c-37.88,41.66-83.88,73.21-132.07,101.37c-76.18,44.52-154.71,84.39-238.52,112.83c-29.2,9.91-58.84,17.88-90.44,14.61
			c-27.77-2.88-40.76-17.57-32.89-44.16c7.09-23.94,18.73-46.52,28.36-69.71L1307.36,1289.29z"/>
		<path class="st0" d="M554.99,879.29c-2.42-60.51,18.61-112.64,57.59-157.82c32.95-38.19,70.17-71.47,120.68-83.95
			c22.29-5.51,45.71-7.83,68.73-8.68c23.31-0.87,55.37,26.37,61.09,54.5c4.62,22.68,5.43,47.12,2.7,70.16
			c-19.73,166.76-84.46,316.82-173.04,457.7c-10.56,16.79-21.78,33.17-32.07,50.11c-13.47,22.17-34.38,27.16-57.89,25.47
			c-3.06-0.22-8.36-6.59-8.03-9.61c0.98-9.06,3.26-18.28,6.76-26.72c58.84-142.2,118.24-284.17,176.78-426.49
			c15.97-38.82,23.5-80.04,28.09-121.67c1.99-18.07-1.6-21.56-19.3-19.13c-8.63,1.19-17.45,3.49-25.35,7.11
			c-78.69,36.08-125.1,97.52-141.98,181.97c-2.47,12.38-4.54,24.96-8.54,36.87c-5.27,15.71-34.4,25.9-48.31,17.19
			c-3.16-1.98-5.23-7.5-5.69-11.63C555.89,902.95,555.65,891.1,554.99,879.29z"/>
		<path class="st0" d="M879.23,1163.62c5.7-93.04,10.65-186.14,17.39-279.1c3.84-52.95,10.54-105.7,16.09-158.53
			c0.62-5.85,2.18-11.6,3.3-17.39c1.9-9.81,8.5-14.12,17.83-14.99c55.84-5.2,111.66-10.54,167.53-15.29
			c7.66-0.65,17.76-4.26,21.94,6.86c2.9,7.72-4.06,23.86-12.65,28.49c-5,2.7-11.03,4.35-16.73,4.77
			c-21.87,1.63-43.78,2.73-65.69,3.7c-8.07,0.36-13.31,1.97-14.16,11.85c-6.37,74.35-12.93,148.68-20.21,222.94
			c-1.2,12.21,1.92,15.77,13.83,15.29c18.54-0.75,37.14-0.35,55.7,0.01c15.52,0.3,18.68,6.21,11.41,20
			c-4.93,9.36-12.6,14.58-23.09,15.43c-15.54,1.26-31.09,3.03-46.65,3.24c-10.72,0.14-15.26,4.45-16.1,14.76
			c-2.94,36.15-6.71,72.24-9.19,108.42c-3.12,45.44-5.54,90.94-7.75,136.44c-0.75,15.51,0.14,15.66,15.7,13.94
			c34.76-3.84,69.48-8.17,104.31-11.19c17.76-1.54,21.17,4.87,13.78,20.97c-5.32,11.58-14.24,17.07-26.63,18.3
			c-49.53,4.9-99.03,10.05-148.55,14.94c-16.61,1.64-26.65-4.86-33.29-21.15c-11.83-29.06-13.59-59.88-15.06-90.63
			c-0.83-17.26-0.15-34.6-0.15-51.91C881.18,1163.72,880.21,1163.67,879.23,1163.62z"/>
		<path class="st0" d="M1307.78,1288.92c-29.02,10.03-57.52,22.3-87.25,29.32c-19.98,4.72-41.81,3.52-62.63,2.18
			c-16.51-1.06-26.08-14.11-25.07-30.93c1.65-27.66,13.55-51.97,27.44-75.28c1.7-2.85,7.12-5.6,10.31-5.11
			c16.65,2.55,27.95,23.12,21.1,41.37c5.07-1.56,8.81-2.21,12.1-3.8c41.73-20.21,83.23-40.92,125.15-60.73
			c29.33-13.86,59.21-26.53,88.86-39.72c3.78-1.68,7.59-3.29,13.61-5.89c-4.86-4.87-8.24-8.79-12.15-12.09
			c-41.9-35.41-85.19-69.3-125.48-106.44c-42.12-38.83-78.81-82.86-96.95-138.64c-19.22-59.07-13.51-116.7,20.99-168.52
			c39.05-58.66,117.11-66.8,170.69-20.86c36.02,30.88,56.3,70.93,69.06,115.58c2.9,10.14-2.7,15.79-10.63,20.42
			c-8.32,4.86-14.44,1.9-19.61-4.98c-13.44-17.88-26.41-36.13-40.35-53.6c-17.73-22.21-38.81-40.05-67.85-45.6
			c-21.14-4.03-30.23,0.29-40.83,18.72c-39.1,67.96-32.02,130.65,26.28,192.95c32.2,34.4,69.47,64.01,103.55,96.72
			c16.67,16,32.97,32.92,46.41,51.61c22.28,30.98,20.87,60.21-0.89,91.6c-26.16,37.72-62.65,63.37-101.29,86.43
			c-14.81,8.84-29.96,17.12-44.97,25.66C1307.36,1289.29,1307.78,1288.92,1307.78,1288.92z"/>
		<path class="st0" d="M575.35,1363.55c-0.58-29.69,19.47-55.9,46.12-61.73c5.3-1.16,12.01-0.29,16.94,2.04
			c22.21,10.47,31.13,45.97,16.23,65.39c-6.31,8.23-14.14,15.68-22.47,21.88c-12.73,9.48-26.62,8.72-40.56,1.44
			C578.53,1385.75,574.74,1374.53,575.35,1363.55z"/>
	</g>
</g>
</svg>
