<?xml version="1.0" encoding="utf-8"?>
<!-- Generator: Adobe Illustrator 28.0.0, SVG Export Plug-In . SVG Version: 6.00 Build 0)  -->
<svg version="1.1" id="Calque_1" xmlns="http://www.w3.org/2000/svg" xmlns:xlink="http://www.w3.org/1999/xlink" x="0px" y="0px"
	 viewBox="0 0 880 260" style="enable-background:new 0 0 880 260;" xml:space="preserve">
<style type="text/css">
	.st0{fill:none;stroke:#333333;stroke-width:5;stroke-miterlimit:10;}
	.st1{fill:#2A333A;}
</style>
<g>
	<path class="st0" d="M749.95,252.04H130.98c-67.53,0-122.27-54.74-122.27-122.27v0C8.71,62.23,63.45,7.49,130.98,7.49h618.97
		c67.53,0,122.27,54.74,122.27,122.27v0C872.22,197.29,817.48,252.04,749.95,252.04z"/>
	<g>
		<path class="st1" d="M253.42,130.48c-0.1-15.45,7.75-28.32,18.18-30.94c-8.74-10.57-22.09-14.73-34.42-14.65
			c-4.23,0.03-8.29,1.21-12.07,3.35c-8.35,4.74-18.43,4.81-26.84,0.18c-3.8-2.09-7.88-3.22-12.11-3.19
			c-20.52,0.13-43.71,12.04-43.49,45.39c0.22,33.35,23.76,75.51,44.28,75.38c4.72-0.03,9.22-1.49,13.36-4.12
			c7.4-4.71,16.8-4.77,24.26-0.16c4.17,2.58,8.69,3.98,13.41,3.95c14.2-0.09,29.58-20.45,37.63-44.03
			C263.44,161.53,253.53,147.66,253.42,130.48z"/>
		<path class="st1" d="M233.3,70.34c-8.57,10.67-24.59,12.03-24.59,12.03s-2.14-15.94,6.43-26.61
			c8.56-10.67,24.59-12.03,24.59-12.03S241.87,59.67,233.3,70.34z"/>
	</g>
	<g>
		<path class="st1" d="M344.62,155.58l-6.04,17.21l-7.55,0.05l20.01-57.37l9.34-0.06l21.64,57.1l-8.09,0.05l-6.46-17.13
			L344.62,155.58z M365.47,148.94c-5.55-15.01-8.61-22.98-9.87-27.33l-0.08,0c-1.37,4.86-4.66,14.56-8.97,27.46L365.47,148.94z"/>
		<path class="st1" d="M397.05,167.25l0.14,21.55l-7.17,0.05l-0.31-47.93c-0.02-3.4-0.05-6.93-0.15-10.18l7-0.05
			c0.17,1.39,0.28,3.91,0.29,6.56c2.23-4.22,6.44-7.59,13.58-7.64c9.65-0.06,16.71,7.98,16.79,20.67
			c0.1,14.89-7.89,22.97-17.99,23.03C402.49,173.36,398.95,170.55,397.05,167.25z M419.81,150.61c-0.06-8.84-4.12-14.87-11.25-14.82
			c-8.64,0.06-12.02,5.54-11.95,15.68c0.06,9.86,2.9,15.82,11.61,15.77C415.85,167.19,419.88,160.89,419.81,150.61z"/>
		<path class="st1" d="M443.93,166.94l0.14,21.55l-7.17,0.05l-0.31-47.93c-0.02-3.4-0.05-6.93-0.15-10.18l7-0.05
			c0.17,1.39,0.28,3.91,0.29,6.56c2.23-4.22,6.44-7.59,13.58-7.64c9.65-0.06,16.71,7.98,16.79,20.67
			c0.1,14.89-7.89,22.97-17.99,23.03C449.38,173.05,445.84,170.24,443.93,166.94z M466.7,150.3c-0.06-8.84-4.12-14.87-11.25-14.82
			c-8.64,0.06-12.02,5.54-11.95,15.68c0.06,9.86,2.9,15.82,11.61,15.77C462.73,166.88,466.77,160.58,466.7,150.3z"/>
		<path class="st1" d="M509.35,155.74c1.6,6.85,6.31,10.53,14.61,10.48c8.93-0.06,12.44-4.27,12.4-9.68
			c-0.04-5.74-2.88-8.94-14.37-11.64c-13.51-3.19-18.22-7.78-18.27-15.82c-0.06-8.5,6.17-15.47,18.94-15.56
			c13.63-0.09,19.29,7.75,20.11,15.26l-7.72,0.05c-1.06-5.09-4.27-9.24-12.62-9.19c-6.97,0.05-10.86,3.21-10.82,8.66
			c0.04,5.37,3.28,7.47,13.33,9.83c16.35,3.87,19.27,10.2,19.32,17.55c0.06,9.23-6.73,16.51-20.73,16.6
			c-14.4,0.09-20.65-7.73-21.89-16.51L509.35,155.74z"/>
		<path class="st1" d="M548.46,129.7l7.21-0.05l-0.08-12.31l7.2-0.05l0.08,12.31l9.21-0.06l0.04,5.88l-9.21,0.06l0.16,24.43
			c0.03,4.05,1.03,6.13,4.8,6.1c1-0.01,2.49-0.07,3.63-0.37l0.04,5.43c-1.77,0.67-4.24,0.8-6.23,0.81
			c-6.49,0.04-9.38-3.3-9.43-10.23l-0.17-26.12l-7.21,0.05L548.46,129.7z"/>
		<path class="st1" d="M615.47,150.03c0.08,12.02-6.74,21.97-19.5,22.06c-11.95,0.08-19.24-9.12-19.32-21.66
			c-0.08-12.32,6.94-21.95,19.51-22.03C607.74,128.32,615.38,136.94,615.47,150.03z M584.07,150.32
			c0.06,9.15,4.67,15.79,12.17,15.74c7.63-0.05,11.88-6.41,11.82-15.87c-0.06-9.39-4.37-15.82-12.19-15.77
			C588.06,134.47,584.01,140.8,584.07,150.32z"/>
		<path class="st1" d="M624.8,140.53c-0.04-5.83-0.11-9.11-0.16-11.33l7.06-0.05c0.12,1.17,0.25,4.44,0.28,8.51
			c2.14-5.66,7.09-9.34,13.99-9.59l0.05,7.18c-8.55,0.31-14.02,4.81-13.95,15.36l0.13,20.25l-7.2,0.05L624.8,140.53z"/>
		<path class="st1" d="M657.48,151.15c0.11,8.49,4.42,14.49,11.5,14.44c6.6-0.04,8.71-3.46,10.03-6.52l7.25-0.05
			c-1.61,5.35-6.04,12.51-17.46,12.59c-13.12,0.09-18.53-10.54-18.61-21.28c-0.08-12.4,6.1-22.33,18.78-22.41
			c13.46-0.09,17.94,10.68,17.99,19.58c0.01,1.27,0.02,2.33-0.09,3.46L657.48,151.15z M679.65,145.93
			c-0.13-6.86-3.62-12.35-10.74-12.31c-7.34,0.05-10.53,5.18-11.21,12.45L679.65,145.93z"/>
	</g>
</g>
</svg>
