<?xml version="1.0" encoding="utf-8"?>
<!-- Generator: Adobe Illustrator 28.0.0, SVG Export Plug-In . SVG Version: 6.00 Build 0)  -->
<svg version="1.1" id="Calque_1" xmlns="http://www.w3.org/2000/svg" xmlns:xlink="http://www.w3.org/1999/xlink" x="0px" y="0px"
	 viewBox="0 0 880 260" style="enable-background:new 0 0 880 260;" xml:space="preserve">
<style type="text/css">
	.st0{fill:#27EC70;}
	.st1{fill:#3AD5F9;}
	.st2{fill:#F60F24;}
	.st3{fill:#FCD831;}
	.st4{fill:#2A333A;}
	.st5{fill:none;stroke:#333333;stroke-width:5;stroke-miterlimit:10;}
</style>
<g>
	<g>
		<g>
		</g>
		<g>
			<path class="st0" d="M246.36,105.85l-72.04-41.6c-3.09-1.78-6.66-1.04-8.89,1.17l59.88,61.12L246.36,105.85z"/>
			<path class="st1" d="M165.42,65.42c-1.31,1.3-2.16,3.11-2.16,5.21v54.51v54.51c0,2.25,0.96,4.15,2.43,5.47l59.61-58.58
				L165.42,65.42z"/>
			<path class="st2" d="M165.7,185.12c2.24,2,5.65,2.62,8.61,0.91l69.8-40.3l-18.81-19.19L165.7,185.12z"/>
			<path class="st3" d="M268.73,118.76l-22.37-12.92l-21.05,20.69l18.81,19.19l24.62-14.21
				C273.64,128.68,273.64,121.6,268.73,118.76z"/>
		</g>
		<path class="st4" d="M343.36,141.27h27.23v1.99c0,4.53-0.53,8.54-1.6,12.03c-1.04,3.23-2.8,6.25-5.27,9.06
			c-5.6,6.3-12.72,9.46-21.37,9.46c-8.44,0-15.67-3.05-21.68-9.14c-6.02-6.12-9.03-13.47-9.03-22.04c0-8.75,3.06-16.18,9.18-22.27
			c6.12-6.12,13.57-9.18,22.35-9.18c4.71,0,9.11,0.96,13.21,2.89c3.91,1.93,7.75,5.05,11.52,9.38l-6.49,6.21
			c-4.95-6.59-10.98-9.89-18.09-9.89c-6.38,0-11.74,2.2-16.06,6.6c-4.32,4.32-6.49,9.74-6.49,16.25c0,6.72,2.41,12.26,7.23,16.61
			c4.5,4.04,9.39,6.06,14.65,6.06c4.48,0,8.51-1.51,12.07-4.53c3.57-3.05,5.56-6.69,5.98-10.94h-17.34V141.27z"/>
		<path class="st4" d="M376.26,153.31c0-5.31,1.9-9.82,5.7-13.54c3.8-3.72,8.43-5.58,13.88-5.58c5.48,0,10.14,1.87,13.96,5.62
			c3.77,3.75,5.66,8.35,5.66,13.81c0,5.51-1.9,10.12-5.7,13.85c-3.82,3.7-8.51,5.55-14.07,5.55c-5.51,0-10.12-1.89-13.84-5.66
			C378.12,163.62,376.26,158.94,376.26,153.31z M384.94,153.46c0,3.67,0.98,6.58,2.94,8.72c2.01,2.16,4.66,3.24,7.96,3.24
			c3.32,0,5.97-1.07,7.96-3.21c1.99-2.14,2.98-4.99,2.98-8.56c0-3.57-0.99-6.43-2.98-8.56c-2.01-2.16-4.67-3.24-7.96-3.24
			c-3.24,0-5.87,1.08-7.88,3.24C385.95,147.25,384.94,150.04,384.94,153.46z"/>
		<path class="st4" d="M420.86,153.31c0-5.31,1.9-9.82,5.7-13.54c3.8-3.72,8.42-5.58,13.88-5.58c5.48,0,10.14,1.87,13.96,5.62
			c3.77,3.75,5.66,8.35,5.66,13.81c0,5.51-1.9,10.12-5.7,13.85c-3.82,3.7-8.51,5.55-14.07,5.55c-5.51,0-10.12-1.89-13.85-5.66
			C422.72,163.62,420.86,158.94,420.86,153.31z M429.54,153.46c0,3.67,0.98,6.58,2.94,8.72c2.01,2.16,4.67,3.24,7.96,3.24
			c3.32,0,5.97-1.07,7.96-3.21c1.99-2.14,2.98-4.99,2.98-8.56c0-3.57-0.99-6.43-2.98-8.56c-2.01-2.16-4.67-3.24-7.96-3.24
			c-3.24,0-5.87,1.08-7.89,3.24C430.55,147.25,429.54,150.04,429.54,153.46z"/>
		<path class="st4" d="M502.74,171.08c0,1.74-0.06,3.26-0.17,4.58c-0.11,1.32-0.27,2.48-0.47,3.49c-0.6,2.77-1.79,5.14-3.55,7.13
			c-3.32,3.82-7.88,5.73-13.69,5.73c-4.9,0-8.94-1.32-12.11-3.96c-3.27-2.72-5.16-6.48-5.66-11.28h8.53
			c0.33,1.81,0.87,3.21,1.62,4.19c1.76,2.29,4.33,3.43,7.7,3.43c6.21,0,9.32-3.81,9.32-11.43v-5.13c-3.37,3.45-7.26,5.17-11.66,5.17
			c-5.01,0-9.11-1.81-12.3-5.43c-3.22-3.67-4.83-8.26-4.83-13.77c0-5.36,1.5-9.91,4.49-13.66c3.22-3.97,7.47-5.96,12.75-5.96
			c4.63,0,8.48,1.72,11.54,5.17v-4.15h8.49V171.08z M494.59,153.65c0-3.57-0.96-6.43-2.87-8.56c-1.94-2.19-4.42-3.28-7.43-3.28
			c-3.22,0-5.76,1.2-7.62,3.58c-1.68,2.14-2.53,4.9-2.53,8.3c0,3.35,0.84,6.09,2.53,8.22c1.84,2.34,4.38,3.51,7.62,3.51
			c3.24,0,5.81-1.18,7.7-3.55C493.72,159.73,494.59,156.99,494.59,153.65z"/>
		<path class="st4" d="M518.26,108.22v63.72h-8.49v-63.72H518.26z"/>
		<path class="st4" d="M589.13,148.49V173h-9.11v-60.36h10.32c5.05,0,16.24,0.35,18.82,1.06c2.61,0.7,4.9,2.03,6.88,3.99
			c3.47,3.39,5.2,7.66,5.2,12.82c0,5.53-1.85,9.9-5.55,13.14c-3.7,3.23-16.06,4.85-22.34,4.85H589.13z M589.13,140.04h3.4
			c8.37,0,19.91,0,19.91-9.66c0-9.34-11.68-9.34-20.31-9.34h-3.01V140.04z"/>
		<path class="st4" d="M634.16,110.03v62.54h-8.33v-62.54H634.16z"/>
		<path class="st4" d="M693.94,165.41l-18.98-31.67h9.66l13.8,23.04l12.14-23.04h9.41l-28.74,55.69h-9.52L693.94,165.41z"/>
		<path class="st4" d="M542.91,141.85c3.72,0,6.93,2.67,8.48,6.54c-1.22-4.37-4.05-6.55-8.5-6.55c-1.03,0-2,0.16-2.9,0.47
			c-0.91,0.31-1.73,0.77-2.47,1.36c-0.74,0.59-1.38,1.3-1.9,2.13c-0.43,0.67-0.77,1.42-1.03,2.23
			C536.18,144.35,539.31,141.85,542.91,141.85z"/>
		<path class="st4" d="M553.35,158.33c-1.74,2.72-3.28,4.58-4.64,5.58c-1.38,1.01-3.13,1.51-5.24,1.51c-2.72,0-4.94-0.88-6.68-2.64
			c-0.53-0.54-0.99-1.15-1.37-1.81l0,0l0,0l16.91-8.55l7.5-3.79c-0.49-2.83-1.42-5.29-2.8-7.37c-0.45-0.67-0.94-1.31-1.48-1.91
			c-3.15-3.45-7.42-5.17-12.83-5.17c-5.36,0-9.66,1.77-12.9,5.32c-3.22,3.6-4.83,8.3-4.83,14.11c0,5.86,1.66,10.56,4.98,14.11
			c3.32,3.52,7.72,5.28,13.2,5.28c1.91,0,3.68-0.2,5.32-0.6c1.64-0.4,3.16-1.04,4.57-1.91c1.41-0.87,2.73-1.97,3.96-3.32
			c1.23-1.35,2.4-2.96,3.51-4.85L553.35,158.33z M534.59,148.03c0.26-0.82,0.6-1.56,1.03-2.23c0.53-0.83,1.16-1.54,1.9-2.13
			c0.74-0.59,1.57-1.04,2.47-1.36c0.91-0.31,1.87-0.47,2.9-0.47c3.05,0,5.34,1.03,6.87,3.09l-16.29,8.24c0,0.14,0,0.14,0,0v0
			C533.52,151.32,533.92,149.57,534.59,148.03z"/>
		<path class="st4" d="M640.39,162.48c0-9.09,9.93-17.29,25.23-11.45c-0.02-5.37-0.81-10.91-7.8-10.91c-4.94,0-8.67,1.56-12.02,3.75
			l-3.56-7.02c3.93-2.52,9.93-5.45,16.79-5.45c10.43,0,14.85,5.92,14.85,16.31v25.61h-6.7l-0.61-4.99h0.49
			c-4.07,3.31-8.84,6.02-14.14,6.02C645.76,174.34,640.39,170.01,640.39,162.48z M665.2,160.39c0.03-2.23-2.78-4.63-6.73-4.92
			c-6.78-0.5-10.99,1.79-10.99,6.52c0,3.77,2.68,6.1,7.49,5.22C659.03,166.45,665.16,163.77,665.2,160.39z"/>
	</g>
	<path class="st5" d="M749.95,252.04H130.98c-67.53,0-122.27-54.74-122.27-122.27v0C8.71,62.23,63.45,7.49,130.98,7.49h618.97
		c67.53,0,122.27,54.74,122.27,122.27v0C872.22,197.29,817.48,252.04,749.95,252.04z"/>
</g>
</svg>
