<?xml version="1.0" encoding="utf-8"?>
<!-- Generator: Adobe Illustrator 28.0.0, SVG Export Plug-In . SVG Version: 6.00 Build 0)  -->
<svg version="1.1" id="Calque_1" xmlns="http://www.w3.org/2000/svg" xmlns:xlink="http://www.w3.org/1999/xlink" x="0px" y="0px"
	 viewBox="0 0 350 350" style="enable-background:new 0 0 350 350;" xml:space="preserve">
<style type="text/css">
	.st0{fill:#E63643;}
</style>
<g>
	<path class="st0" d="M241.9,61.83H108.1c-25.51,0-46.27,20.76-46.27,46.27v133.8c0,25.51,20.76,46.27,46.27,46.27h133.8
		c25.51,0,46.27-20.76,46.27-46.27V108.1C288.17,82.58,267.42,61.83,241.9,61.83z M175,247c-39.7,0-72-32.3-72-72s32.3-72,72-72
		s72,32.3,72,72S214.7,247,175,247z M252.97,116.29c-7.63,0-13.81-6.19-13.81-13.81c0-7.63,6.19-13.81,13.81-13.81
		s13.81,6.19,13.81,13.81C266.79,110.1,260.6,116.29,252.97,116.29z"/>
	<circle class="st0" cx="175" cy="175" r="54.46"/>
	<path class="st0" d="M281.3,7.95H68.69c-33.55,0-60.74,27.2-60.74,60.75v212.61c0,33.55,27.19,60.74,60.74,60.74H281.3
		c33.55,0,60.75-27.19,60.75-60.74V68.7C342.05,35.15,314.85,7.95,281.3,7.95z M305.71,241.9c0,35.18-28.62,63.81-63.81,63.81H108.1
		c-35.18,0-63.81-28.62-63.81-63.81V108.1c0-35.18,28.62-63.81,63.81-63.81h133.8c35.18,0,63.81,28.62,63.81,63.81V241.9z"/>
</g>
</svg>
