<?xml version="1.0" encoding="utf-8"?>
<!-- Generator: Adobe Illustrator 28.0.0, SVG Export Plug-In . SVG Version: 6.00 Build 0)  -->
<svg version="1.1" id="Calque_1" xmlns="http://www.w3.org/2000/svg" xmlns:xlink="http://www.w3.org/1999/xlink" x="0px" y="0px"
	 viewBox="0 0 350 350" style="enable-background:new 0 0 350 350;" xml:space="preserve">
<style type="text/css">
	.st0{fill:#E63643;}
</style>
<g>
	<path class="st0" d="M233.74,90.65L233.74,90.65c0-0.01,0-0.01-0.01-0.02C233.73,90.64,233.74,90.64,233.74,90.65z"/>
	<path class="st0" d="M277.77,6.86H72.23c-36.1,0-65.37,29.27-65.37,65.37v205.54c0,36.1,29.27,65.37,65.37,65.37h205.54
		c36.1,0,65.37-29.27,65.37-65.37V72.23C343.14,36.13,313.87,6.86,277.77,6.86z M272.31,120.63v25.25c0,0-29.01,5.27-57.18-18.08
		v84.51c0,0,0.42,57.88-58.5,72.6c-40.81,10.2-67.36-18.51-67.71-18.89l0,0l0,0c-10.19-7.13-38.59-51.1-13.05-93.4
		c28.02-46.4,74.51-36.83,74.51-36.83v14.3c0,0-1.22,0.05-0.07,0c0.05,0,0.07,0,0.07,0v28.59h-0.01c-0.23-0.05-4.72-1.1-10.71-0.68
		c-0.03,0-0.05,0-0.08,0c-17.73,0.82-24.28,11.92-26.08,14.31c-2.13,2.82-6.87,9.46-5.84,23.7c1.02,14.02,13.71,23.34,14.11,23.63
		c0.01,0,0.01,0.01,0.01,0.01l0,0l0,0c0.03,0.02,14.86,10.74,33.61,2.26c18.77-8.49,19.58-28.97,19.58-31.06
		c0-2.09-0.21-162.51-0.21-162.51h40.78c0,0,0.17,11.64,2.1,16.4l0,0c0,0,3.74,13.44,12.17,22.27c0.87,0.91,1.79,1.77,2.76,2.56
		c0.34,0.28,0.68,0.54,1.03,0.8c0.01,0.01,0.02,0.02,0.03,0.02c0,0,0,0,0,0.01c0.25,0.24,17.1,16.7,38.68,15.1V120.63z"/>
</g>
</svg>
