<?xml version="1.0" encoding="utf-8"?>
<!-- Generator: Adobe Illustrator 28.0.0, SVG Export Plug-In . SVG Version: 6.00 Build 0)  -->
<svg version="1.1" id="Calque_1" xmlns="http://www.w3.org/2000/svg" xmlns:xlink="http://www.w3.org/1999/xlink" x="0px" y="0px"
	 viewBox="0 0 350 350" style="enable-background:new 0 0 350 350;" xml:space="preserve">
<style type="text/css">
	.st0{fill:#E63643;}
</style>
<g>
	<path class="st0" d="M276.41,105.36c-0.01,0-0.02,0.01-0.03,0.01c-0.14,0.04,0.09,0.16,0.02,0.04
		C276.39,105.39,276.41,105.38,276.41,105.36z"/>
	<path class="st0" d="M281.3,7.95H68.69c-33.55,0-60.74,27.2-60.74,60.75v212.61c0,33.55,27.19,60.74,60.74,60.74H281.3
		c33.55,0,60.75-27.19,60.75-60.74V68.7C342.05,35.15,314.85,7.95,281.3,7.95z M304.57,98.58c-0.13,0.59-0.43,1.09-0.76,1.57
		c-4.15,5.97-8.92,11.41-14.2,16.39c-2.83,2.67-5.75,5.24-8.93,7.48c-1.36,0.95-1.72,2.13-1.54,3.69c0.27,2.42,0.35,4.85,0.07,7.26
		c-0.24,2.09-0.14,4.19-0.29,6.29c-0.44,6.31-1.26,12.55-2.47,18.76c-2.06,10.54-5.2,20.76-9.37,30.65
		c-4.42,10.49-9.92,20.39-16.47,29.71c-5.81,8.26-12.38,15.86-19.73,22.77c-8.9,8.37-18.72,15.5-29.48,21.34
		c-7.74,4.2-15.79,7.65-24.16,10.38c-9.05,2.95-18.31,4.97-27.76,6.13c-2.34,0.29-13.21,0.91-32.04,0.48
		c-12.23-0.28-16.21-1.62-21.27-2.72c-10.52-2.3-20.67-5.75-30.44-10.27c-5.63-2.6-11.1-5.54-16.37-8.83
		c-0.62-0.39-1.26-0.78-1.29-1.64c0.21-0.46,0.59-0.49,1.03-0.43c4.26,0.5,8.53,0.59,12.81,0.57c6.98-0.03,13.86-0.89,20.69-2.32
		c9.74-2.04,18.97-5.48,27.74-10.16c4.79-2.56,9.35-5.48,13.76-8.81c-1.2-0.45-2.39-0.33-3.53-0.47
		c-9.99-1.22-18.94-4.96-26.8-11.22c-7.86-6.25-13.56-14.1-16.96-23.57c-0.93-2.58-0.66-2.68,2.22-2.21
		c5.78,0.94,11.69,0.83,17.43-0.36c0.51-0.11,1-0.19,1.63-0.29c-5.72-1.43-10.97-3.69-15.85-6.82c-6.64-4.27-12.1-9.72-16.34-16.39
		c-4.47-7.02-7.1-14.68-7.97-22.94c-0.17-1.66-0.34-3.33-0.28-5.02c0.06-1.73,0.41-1.92,2.02-1.06c2.68,1.43,5.5,2.56,8.39,3.48
		c1.43,0.45,2.86,0.88,4.33,1.18c2.44,0.51,4.9,0.94,7.59,1.12c-1.28-1.16-2.56-2.07-3.73-3.1c-4.47-3.91-8.19-8.44-11.15-13.59
		c-3.7-6.43-6-13.34-6.74-20.71c-0.99-9.74,0.41-19.13,4.59-28.05c0.61-1.29,1.26-2.56,1.95-3.81c0.59-1.07,1.01-1.1,1.79-0.15
		c3.72,4.52,7.7,8.81,11.93,12.86c5.88,5.64,12.19,10.76,18.91,15.37c12.81,8.79,26.64,15.46,41.52,19.92
		c8.39,2.51,16.94,4.28,25.65,5.26c2.44,0.28,4.88,0.61,7.35,0.64c1.36,0.01,1.56-0.22,1.3-1.6c-0.62-3.34-0.93-6.72-0.88-10.1
		c0.14-9.77,2.71-18.87,7.81-27.23c4.62-7.58,10.78-13.63,18.4-18.15c4.88-2.89,10.08-5.04,15.67-6.15
		c2.25-0.45,4.56-0.46,6.85-0.58c0.21-0.01,6.04-0.11,8.75-0.11c2.03,0.23,4.09,0.18,6.1,0.47c3.64,0.53,7.11,1.71,10.49,3.14
		c6.24,2.65,11.84,6.28,16.59,11.15c0.94,0.96,1.93,1.16,3.2,0.87c10.37-2.34,20.22-6.05,29.46-11.33c0.4-0.23,0.8-0.49,1.24-0.62
		c0.62-0.18,1.1,0.24,1,0.88c-0.1,0.59-0.32,1.16-0.53,1.72c-2.47,6.55-6.03,12.42-10.82,17.56c-2.67,2.86-5.57,5.41-8.76,7.65
		c-0.38,0.27-0.77,0.54-1.21,0.72c2.24-0.51,4.52-0.81,6.76-1.27c6.91-1.42,13.6-3.54,20.09-6.29c0.31-0.13,0.64-0.42,0.97-0.14
		C304.87,97.85,304.65,98.23,304.57,98.58z"/>
</g>
</svg>
