<?xml version="1.0" encoding="utf-8"?>
<!-- Generator: Adobe Illustrator 28.0.0, SVG Export Plug-In . SVG Version: 6.00 Build 0)  -->
<svg version="1.1" id="Calque_1" xmlns="http://www.w3.org/2000/svg" xmlns:xlink="http://www.w3.org/1999/xlink" x="0px" y="0px"
	 viewBox="0 0 1500 663" style="enable-background:new 0 0 1500 663;" xml:space="preserve">
<style type="text/css">
	.st0{fill:url(#SVGID_1_);}
</style>
<g>
	<g>
		
			<linearGradient id="SVGID_1_" gradientUnits="userSpaceOnUse" x1="1009.7656" y1="920.03" x2="392.9848" y2="-148.2657" gradientTransform="matrix(1 0 0 1 0 4)">
			<stop  offset="4.475343e-07" style="stop-color:#DF2D49"/>
			<stop  offset="1" style="stop-color:#CC2F75"/>
		</linearGradient>
		<path class="st0" d="M221.67,217.93h65.57v-30.08h-65.57v-34.84h61.24v-29.43h-61.24V96.54h65.57V66.46h-65.57h-10.82h-24.24
			v151.47h24.24H221.67z M271.22,16.25l-25.1-11.47l-32.46,34.62l18.61,9.31L271.22,16.25z M354.1,437.93V286.46h-18.39v151.47
			H354.1z M1478.45,506.46h-118.8v32.68h60.16l-70.54,118.8h121.4v-31.38h-63.83L1478.45,506.46z M1223.98,66.46v32.68h60.16
			l-70.54,118.8h121.4v-31.38h-63.83l71.62-120.1H1223.98z M65.65,217.93H82.1c16.59,0,30.94-3.1,43.06-9.3
			c12.12-6.2,21.49-14.96,28.13-26.29c6.63-11.32,9.95-24.7,9.95-40.14c0-15.58-3.32-29-9.95-40.25
			c-6.64-11.25-16.01-19.98-28.13-26.18c-12.12-6.2-26.47-9.31-43.06-9.31H65.65H52.24H28v151.47h24.24H65.65z M65.65,98.92H80.8
			c5.77,0,11.36,0.72,16.77,2.16c5.41,1.44,10.17,3.82,14.28,7.14c4.11,3.32,7.39,7.76,9.85,13.31c2.45,5.56,3.68,12.44,3.68,20.67
			c0,8.22-1.23,15.11-3.68,20.67c-2.45,5.56-5.73,9.99-9.85,13.31c-4.11,3.32-8.87,5.7-14.28,7.14c-5.41,1.44-11,2.16-16.77,2.16
			H65.65V98.92z M1044.81,159.07c8.66-4.18,15.22-9.99,19.69-17.42c4.47-7.43,6.71-15.98,6.71-25.64c0-9.81-2.24-18.43-6.71-25.86
			c-4.47-7.43-11.04-13.23-19.69-17.42c-8.66-4.18-19.48-6.28-32.46-6.28h-18.61h-13.63h-22.94v151.47h36.57v-52.58h11.03
			l32.68,52.58h42.85l-39.48-57.15C1042.19,160.25,1043.53,159.69,1044.81,159.07z M1030.53,128.02c-1.88,2.96-4.58,5.19-8.11,6.71
			c-3.54,1.51-7.76,2.27-12.66,2.27h-16.01V97.4h16.01c4.9,0,9.12,0.79,12.66,2.38c3.53,1.59,6.24,3.86,8.11,6.82
			c1.87,2.96,2.81,6.53,2.81,10.71C1033.34,121.49,1032.4,125.07,1030.53,128.02z M331.59,199.54c7.36,7.07,16.15,12.48,26.4,16.23
			c10.24,3.75,21.42,5.63,33.54,5.63c11.11,0,20.27-1.37,27.48-4.11c7.21-2.74,13.85-6.49,19.91-11.25v-39.38
			c-3.32,3.46-7.14,6.71-11.47,9.74c-4.33,3.03-9.23,5.48-14.71,7.36c-5.48,1.88-11.83,2.81-19.04,2.81
			c-8.22,0-15.76-1.73-22.61-5.19c-6.85-3.46-12.37-8.55-16.55-15.26c-4.19-6.71-6.27-14.68-6.27-23.91
			c0-9.38,2.09-17.38,6.27-24.02c4.18-6.63,9.7-11.69,16.55-15.15c6.85-3.46,14.39-5.19,22.61-5.19c7.21,0,13.56,0.9,19.04,2.7
			c5.48,1.81,10.39,4.26,14.71,7.36c4.33,3.1,8.15,6.38,11.47,9.85V78.36c-6.06-4.76-12.7-8.51-19.91-11.25
			C411.8,64.37,402.64,63,391.53,63c-12.12,0-23.3,1.88-33.54,5.63c-10.24,3.75-19.04,9.16-26.4,16.23
			c-7.36,7.07-13.06,15.44-17.1,25.1c-4.04,9.67-6.06,20.42-6.06,32.24c0,11.83,2.02,22.58,6.06,32.24
			C318.54,184.1,324.24,192.47,331.59,199.54z M941.38,66.46h-42.85l-37,90.45l-37-90.45H781.9l79.63,160.99L941.38,66.46z
			 M1132.23,217.93h65.57v-30.08h-65.57v-34.84h61.24v-29.43h-61.24V96.54h65.57V66.46h-65.57h-10.82h-24.24v151.47h24.24H1132.23z
			 M662.99,210.47c5.55,4.54,12.01,7.97,19.37,10.28c7.36,2.31,15.29,3.46,23.8,3.46c8.51,0,16.48-1.16,23.91-3.46
			c7.43-2.31,13.92-5.73,19.48-10.28c5.55-4.54,9.88-10.35,12.98-17.42c3.1-7.07,4.65-15.36,4.65-24.89V66.46h-36.57v99.11
			c0,7.65-2.02,13.85-6.06,18.61c-4.04,4.76-10.17,7.14-18.39,7.14c-8.08,0-14.14-2.38-18.18-7.14c-4.04-4.76-6.06-10.96-6.06-18.61
			V66.46h-36.57v101.7c0,9.52,1.55,17.82,4.65,24.89C653.11,200.12,657.44,205.92,662.99,210.47z M115.64,599.07
			c8.66-4.18,15.22-9.99,19.69-17.42c4.47-7.43,6.71-15.98,6.71-25.64c0-9.81-2.24-18.43-6.71-25.86
			c-4.47-7.43-11.04-13.23-19.69-17.42c-8.66-4.18-19.48-6.28-32.46-6.28H64.57H50.94H28v151.47h36.57v-52.58h11.03l32.68,52.58
			h42.85l-39.48-57.15C113.02,600.25,114.36,599.69,115.64,599.07z M101.36,568.02c-1.88,2.96-4.58,5.19-8.11,6.71
			c-3.54,1.51-7.76,2.27-12.66,2.27H64.57v-39.6h16.01c4.9,0,9.12,0.79,12.66,2.38c3.53,1.59,6.24,3.86,8.11,6.82
			c1.87,2.96,2.81,6.53,2.81,10.71C104.17,561.49,103.23,565.07,101.36,568.02z M482.96,199.97c7.28,7.22,15.9,12.8,25.86,16.77
			c9.95,3.97,20.92,5.95,32.89,5.95c11.83,0,22.72-1.98,32.67-5.95c9.95-3.97,18.57-9.56,25.86-16.77
			c7.28-7.21,12.91-15.72,16.88-25.53c3.96-9.81,5.95-20.56,5.95-32.24s-2.02-22.36-6.06-32.03c-4.04-9.66-9.74-18.03-17.09-25.1
			c-7.36-7.07-15.98-12.51-25.86-16.34c-9.88-3.82-20.67-5.73-32.35-5.73c-11.54,0-22.29,1.91-32.24,5.73
			c-9.95,3.82-18.61,9.27-25.97,16.34c-7.36,7.07-13.09,15.44-17.2,25.1c-4.11,9.67-6.17,20.34-6.17,32.03s1.98,22.43,5.95,32.24
			C470.04,184.25,475.67,192.76,482.96,199.97z M504.16,118.5c3.53-6.85,8.51-12.23,14.93-16.12c6.42-3.9,13.96-5.84,22.61-5.84
			c8.8,0,16.37,1.95,22.72,5.84c6.35,3.9,11.25,9.27,14.71,16.12c3.46,6.85,5.19,14.75,5.19,23.69c0,8.95-1.77,16.84-5.3,23.69
			c-3.54,6.85-8.51,12.23-14.93,16.12c-6.42,3.9-13.89,5.84-22.4,5.84c-8.66,0-16.2-1.95-22.61-5.84
			c-6.42-3.9-11.4-9.27-14.93-16.12c-3.54-6.85-5.3-14.75-5.3-23.69C498.86,133.25,500.63,125.35,504.16,118.5z M507.73,445.5
			l70.33-159.05H557.5l-49.77,117.28l-49.77-117.28h-20.56L507.73,445.5z M835.78,436.2c6.35-2.6,11.79-6.2,16.34-10.82
			c4.54-4.62,8.01-10.1,10.39-16.45c2.38-6.35,3.57-13.27,3.57-20.77v-101.7h-18.39v101.7c0,10.39-2.81,18.76-8.44,25.1
			c-5.63,6.35-13.85,9.52-24.67,9.52s-19.04-3.17-24.67-9.52c-5.63-6.35-8.44-14.71-8.44-25.1v-101.7h-18.39v101.7
			c0,7.5,1.19,14.43,3.57,20.77c2.38,6.35,5.84,11.83,10.39,16.45c4.54,4.62,9.99,8.22,16.34,10.82c6.35,2.6,13.42,3.9,21.21,3.9
			S829.43,438.8,835.78,436.2z M904.16,591.72l-104.52-92.83v159.05h35.06v-85.26l104.73,92.83V506.46h-35.27V591.72z
			 M753.12,525.07c-7.36-7.07-15.98-12.51-25.86-16.34c-9.88-3.82-20.67-5.73-32.35-5.73c-11.54,0-22.29,1.91-32.24,5.73
			c-9.95,3.82-18.61,9.27-25.97,16.34c-7.36,7.07-13.09,15.44-17.2,25.1c-4.11,9.67-6.17,20.34-6.17,32.03
			c0,11.68,1.98,22.43,5.95,32.24c3.97,9.81,9.59,18.32,16.88,25.53c7.28,7.21,15.9,12.8,25.86,16.77
			c9.95,3.97,20.92,5.95,32.89,5.95c11.83,0,22.72-1.98,32.67-5.95c9.95-3.97,18.57-9.56,25.86-16.77
			c7.28-7.21,12.91-15.72,16.88-25.53c3.97-9.81,5.95-20.56,5.95-32.24c0-11.69-2.02-22.36-6.06-32.03
			C766.17,540.5,760.48,532.14,753.12,525.07z M732.24,605.89c-3.54,6.85-8.51,12.23-14.93,16.12c-6.42,3.9-13.89,5.84-22.4,5.84
			c-8.66,0-16.2-1.95-22.61-5.84c-6.42-3.89-11.4-9.27-14.93-16.12c-3.54-6.85-5.3-14.75-5.3-23.69c0-8.94,1.77-16.84,5.3-23.7
			c3.53-6.85,8.51-12.23,14.93-16.12c6.42-3.89,13.96-5.84,22.61-5.84c8.8,0,16.37,1.95,22.72,5.84c6.35,3.9,11.25,9.27,14.71,16.12
			c3.46,6.85,5.19,14.75,5.19,23.7C737.54,591.14,735.77,599.04,732.24,605.89z M661.37,440.09c11.11,0,21.31-1.98,30.62-5.95
			c9.3-3.97,17.42-9.45,24.34-16.45c6.93-7,12.3-15.26,16.12-24.78c3.82-9.52,5.73-19.76,5.73-30.73c0-11.11-1.91-21.39-5.73-30.84
			c-3.82-9.45-9.2-17.67-16.12-24.67c-6.92-7-15.04-12.48-24.34-16.45c-9.3-3.97-19.51-5.95-30.62-5.95
			c-10.96,0-21.13,1.98-30.51,5.95c-9.38,3.97-17.53,9.45-24.45,16.45c-6.92,7-12.3,15.22-16.12,24.67
			c-3.82,9.45-5.73,19.73-5.73,30.84c0,10.96,1.91,21.21,5.73,30.73c3.82,9.52,9.2,17.78,16.12,24.78
			c6.92,7,15.07,12.48,24.45,16.45C640.23,438.11,650.4,440.09,661.37,440.09z M611.49,392.71c-4.98-8.94-7.47-19.11-7.47-30.51
			c0-11.39,2.49-21.56,7.47-30.51c4.98-8.94,11.79-16.01,20.45-21.21c8.66-5.19,18.46-7.79,29.43-7.79c11.11,0,20.95,2.6,29.54,7.79
			c8.58,5.19,15.36,12.26,20.34,21.21c4.98,8.95,7.46,19.12,7.46,30.51c0,11.4-2.49,21.57-7.46,30.51
			c-4.98,8.95-11.76,16.01-20.34,21.21c-8.58,5.19-18.43,7.79-29.54,7.79c-10.96,0-20.77-2.6-29.43-7.79
			C623.28,408.72,616.47,401.65,611.49,392.71z M956.31,539.13h41.55v118.8h36.57v-118.8h41.76v-32.68H956.31V539.13z
			 M976.97,428.41c4.4-3.75,7.86-8.29,10.39-13.63c2.52-5.34,3.79-11.32,3.79-17.96c0-6.92-1.23-12.88-3.68-17.85
			c-2.46-4.98-5.59-9.23-9.41-12.77c-3.82-3.53-7.97-6.45-12.44-8.76c-4.47-2.31-8.73-4.18-12.77-5.63
			c-8.8-3.03-15.76-6.09-20.88-9.2c-5.12-3.1-8.76-6.42-10.93-9.95c-2.16-3.53-3.25-7.39-3.25-11.58c0-4.9,1.87-9.34,5.63-13.31
			c3.75-3.97,9.74-5.95,17.96-5.95c5.91,0,10.93,1.16,15.04,3.46c4.11,2.31,7.61,5.27,10.49,8.87c2.88,3.61,5.26,7.29,7.14,11.04
			l15.8-9.09c-2.45-5.33-5.84-10.42-10.17-15.26c-4.33-4.83-9.56-8.8-15.69-11.9c-6.13-3.1-13.31-4.65-21.53-4.65
			c-8.51,0-16.09,1.7-22.72,5.08c-6.64,3.39-11.83,8.04-15.58,13.96c-3.75,5.92-5.63,12.62-5.63,20.12c0,6.92,1.33,12.77,4,17.53
			c2.67,4.76,6.09,8.76,10.28,12.01c4.18,3.25,8.58,5.92,13.2,8.01c4.62,2.09,8.8,3.79,12.55,5.08c5.77,2.02,11.21,4.29,16.34,6.82
			c5.12,2.53,9.27,5.81,12.44,9.85c3.17,4.04,4.76,9.45,4.76,16.23c0,6.92-2.45,12.62-7.36,17.09c-4.91,4.47-11.4,6.71-19.48,6.71
			c-6.06,0-11.47-1.3-16.23-3.9s-9.05-6.2-12.88-10.82c-3.82-4.62-7.47-9.95-10.93-16.01l-14.71,9.95
			c3.32,6.64,7.61,12.88,12.88,18.72c5.26,5.84,11.39,10.53,18.39,14.07c7,3.53,14.61,5.3,22.83,5.3c6.06,0,11.86-1.01,17.42-3.03
			C967.59,435.05,972.57,432.16,976.97,428.41z M403,591.72l-104.52-92.83v159.05h35.06v-85.26l104.73,92.83V506.46H403V591.72z
			 M1180.49,599.07c8.66-4.18,15.22-9.99,19.69-17.42c4.47-7.43,6.71-15.98,6.71-25.64c0-9.81-2.24-18.43-6.71-25.86
			c-4.47-7.43-11.04-13.23-19.69-17.42c-8.66-4.18-19.48-6.28-32.46-6.28h-18.61h-13.63h-22.94v151.47h36.57v-52.58h11.03
			l32.68,52.58h42.85l-39.48-57.15C1177.86,600.25,1179.21,599.69,1180.49,599.07z M1166.2,568.02c-1.88,2.96-4.58,5.19-8.11,6.71
			c-3.54,1.51-7.76,2.27-12.66,2.27h-16.01v-39.6h16.01c4.9,0,9.12,0.79,12.66,2.38c3.53,1.59,6.24,3.86,8.11,6.82
			c1.87,2.96,2.81,6.53,2.81,10.71C1169.02,561.49,1168.08,565.07,1166.2,568.02z M192.24,506.46H168v151.47h24.24h10.82h65.57
			v-30.08h-65.57v-34.84h61.24v-29.43h-61.24v-27.05h65.57v-30.08h-65.57H192.24z M157.18,412.39c4.68-5.77,8.47-12.25,11.37-19.47
			c3.82-9.52,5.73-19.76,5.73-30.73c0-11.11-1.91-21.39-5.73-30.84c-3.82-9.45-9.2-17.67-16.12-24.67
			c-6.92-7-15.04-12.48-24.34-16.45c-9.31-3.97-19.51-5.95-30.62-5.95c-10.96,0-21.14,1.98-30.51,5.95
			c-9.38,3.97-17.53,9.45-24.45,16.45c-6.92,7-12.3,15.22-16.12,24.67c-3.82,9.45-5.73,19.73-5.73,30.84
			c0,10.96,1.91,21.21,5.73,30.73c3.82,9.52,9.2,17.78,16.12,24.78c6.92,7,15.07,12.48,24.45,16.45c9.38,3.97,19.55,5.95,30.51,5.95
			c11.11,0,21.31-1.98,30.62-5.95c6.22-2.65,11.89-5.99,17.05-10l13.79,13.79h23.8L157.18,412.39z M147.34,392.71
			c-1.17,2.11-2.46,4.11-3.83,6.01l-25.7-25.7H94l37.7,37.7c-1.51,1.13-3.06,2.21-4.7,3.2c-8.58,5.19-18.43,7.79-29.54,7.79
			c-10.96,0-20.77-2.6-29.43-7.79c-8.66-5.19-15.47-12.26-20.45-21.21c-4.98-8.94-7.47-19.11-7.47-30.51
			c0-11.39,2.49-21.56,7.47-30.51c4.98-8.94,11.79-16.01,20.45-21.21c8.66-5.19,18.46-7.79,29.43-7.79c11.11,0,20.95,2.6,29.54,7.79
			c8.58,5.19,15.36,12.26,20.34,21.21c4.98,8.95,7.47,19.12,7.47,30.51C154.81,373.59,152.32,383.76,147.34,392.71z M302.17,388.16
			v-101.7h-18.39v101.7c0,10.39-2.81,18.76-8.44,25.1c-5.63,6.35-13.85,9.52-24.67,9.52c-10.82,0-19.04-3.17-24.67-9.52
			c-5.63-6.35-8.44-14.71-8.44-25.1v-101.7h-18.39v101.7c0,7.5,1.19,14.43,3.57,20.77c2.38,6.35,5.84,11.83,10.39,16.45
			c4.54,4.62,9.99,8.22,16.34,10.82c6.35,2.6,13.42,3.9,21.21,3.9s14.86-1.3,21.21-3.9c6.35-2.6,11.79-6.2,16.34-10.82
			c4.54-4.62,8.01-10.1,10.39-16.45C300.98,402.59,302.17,395.66,302.17,388.16z M1257.09,506.46h-24.24v151.47h24.24h10.82h65.57
			v-30.08h-65.57v-34.84h61.24v-29.43h-61.24v-27.05h65.57v-30.08h-65.57H1257.09z M544.74,502.99c-12.12,0-23.3,1.88-33.54,5.63
			c-10.24,3.75-19.04,9.16-26.4,16.23c-7.36,7.07-13.06,15.44-17.1,25.1c-4.04,9.67-6.06,20.42-6.06,32.24
			c0,11.83,2.02,22.58,6.06,32.24c4.04,9.67,9.74,18.04,17.1,25.1c7.36,7.07,16.15,12.48,26.4,16.23
			c10.24,3.75,21.42,5.63,33.54,5.63c11.11,0,20.27-1.37,27.48-4.11c7.21-2.74,13.85-6.49,19.91-11.25v-39.38
			c-3.32,3.46-7.14,6.71-11.47,9.74s-9.23,5.48-14.71,7.36c-5.48,1.88-11.83,2.81-19.04,2.81c-8.22,0-15.76-1.73-22.61-5.19
			c-6.85-3.46-12.37-8.55-16.55-15.26c-4.19-6.71-6.27-14.68-6.27-23.91c0-9.38,2.09-17.38,6.27-24.02
			c4.18-6.63,9.7-11.69,16.55-15.15c6.85-3.46,14.39-5.19,22.61-5.19c7.21,0,13.56,0.9,19.04,2.71c5.48,1.81,10.39,4.26,14.71,7.36
			c4.33,3.1,8.15,6.38,11.47,9.85v-39.38c-6.06-4.76-12.7-8.51-19.91-11.25C565,504.37,555.84,502.99,544.74,502.99z"/>
	</g>
</g>
</svg>
