<?xml version="1.0" encoding="utf-8"?>
<!-- Generator: Adobe Illustrator 28.0.0, SVG Export Plug-In . SVG Version: 6.00 Build 0)  -->
<svg version="1.1" id="Calque_1" xmlns="http://www.w3.org/2000/svg" xmlns:xlink="http://www.w3.org/1999/xlink" x="0px" y="0px"
	 viewBox="0 0 2000 2000" style="enable-background:new 0 0 2000 2000;" xml:space="preserve">
<style type="text/css">
	.st0{fill:#E63643;}
</style>
<g>
	<g>
		<path class="st0" d="M842.65,1035.74c-2.21-16.95-5.27-33.82-6.51-50.84c-7.87-107.24-9.66-215.33-24.69-321.55
			c-12.67-89.59-38.72-177.5-62.44-265.2c-10.63-39.33-29.98-43.05-59.87-14.74C573.57,492.89,504.71,624.63,499.71,786.5
			c-0.95,30.28,7.67,55.55,25.1,80c154.07,216.15,301.81,436.48,428.08,670.31c23.11,42.8,42.2,89.03,54.68,135.94
			c8.3,31.2,2.96,66.5,1.12,99.81c-1.29,23.31-7.94,46.28-10.34,69.56c-1.94,18.69-10.39,25.35-28.45,21.78
			c-32.75-6.48-53.75-27.58-70.46-54.77c-87.89-143.15-175.56-286.44-264.13-429.18c-42.61-68.68-86.99-136.28-130.57-204.38
			c-2.79,0.44-5.61,0.85-8.4,1.29c2.16,33.5,5.34,66.96,6.29,100.49c2.4,86.89,5.07,173.81,5,260.73
			c-0.02,34.09-62.08,102.07-95.59,104.71c-12.67,1-30.32-11.1-39.33-22.36c-42.34-52.85-66.21-115.13-83.4-179.83
			c-52.05-195.98-74.37-396.59-82.72-598.23c-8.5-204.65-9.18-409.66-10.2-614.52c-0.27-51.79,9.91-103.79,17.67-155.36
			c5.97-39.74,15.22-45.77,54.77-45.67c58.05,0.12,61.84-0.56,72.76,59.41c20.69,113.62,36.66,228.12,54.34,342.31
			c3.08,19.93,4.88,40.06,8.45,69.85c10.97-18.79,17.6-29.5,23.6-40.52c57.76-106.51,148.34-173.64,261.05-210.93
			c24.18-8.01,56.16-6.07,80.51,2.57c77.23,27.46,128.56,83.96,150.97,162.42c33.12,115.98,62.74,232.95,92.99,349.74
			c2.62,10.15,2.52,24.33-2.69,32.65c-51.25,82.14-103.86,163.44-156.06,245C850.71,1038.12,846.68,1036.93,842.65,1035.74z"/>
		<path class="st0" d="M1045.25,713.49c-5.88-146.91,45.18-273.48,139.82-383.17c80-92.72,170.36-173.52,293-203.82
			c54.12-13.38,110.98-19.01,166.87-21.07c56.59-2.11,134.43,64.02,148.32,132.32c11.22,55.06,13.18,114.4,6.56,170.34
			c-47.9,404.87-205.06,769.2-420.12,1111.24c-25.64,40.76-52.88,80.53-77.86,121.66c-32.7,53.83-83.47,65.94-140.55,61.84
			c-7.43-0.53-20.3-16-19.5-23.33c2.38-22,7.91-44.38,16.41-64.87c142.86-345.24,287.07-689.93,429.2-1035.46
			c38.77-94.25,57.06-194.33,68.2-295.4c4.83-43.87-3.88-52.34-46.86-46.45c-20.95,2.89-42.37,8.47-61.55,17.26
			c-191.05,87.6-303.73,236.77-344.71,441.8c-6,30.06-11.02,60.6-20.73,89.52c-12.79,38.14-83.52,62.88-117.29,41.74
			c-7.67-4.81-12.7-18.21-13.81-28.24C1047.44,770.93,1046.86,742.16,1045.25,713.49z"/>
		<path class="st0" d="M1094.68,1889.21c-1.41-72.08,47.27-135.72,111.97-149.87c12.87-2.82,29.16-0.7,41.13,4.95
			c53.92,25.42,75.58,111.61,39.4,158.76c-15.32,19.98-34.33,38.07-54.55,53.12c-30.91,23.02-64.63,21.17-98.47,3.5
			C1102.41,1943.11,1093.2,1915.87,1094.68,1889.21z"/>
	</g>
</g>
</svg>
